<svg xmlns="http://www.w3.org/2000/svg" width="105" height="105" viewBox="0 0 105 105">
  <path id="github-box" d="M14.111,3H91.889A11.111,11.111,0,0,1,103,14.111V91.889A11.111,11.111,0,0,1,91.889,103H67.222c-1.778-.389-1.833-3.778-1.833-4.944l.056-13.722c0-4.667-1.611-7.722-3.389-9.278,11.167-1.222,22.833-5.389,22.833-24.667a19.55,19.55,0,0,0-5.111-13.444c.5-1.222,2.222-6.333-.5-13.222,0,0-4.222-1.278-13.778,5.167A49.178,49.178,0,0,0,53,27.167a49.178,49.178,0,0,0-12.5,1.722c-9.556-6.444-13.778-5.167-13.778-5.167-2.722,6.889-1,12-.5,13.222a19.55,19.55,0,0,0-5.111,13.444c0,19.278,11.667,23.444,22.778,24.833-1.444,1.111-2.722,3.333-3.167,6.556-2.889,1.278-10.111,3.5-14.556-4.167,0,0-2.667-4.778-7.667-5.167,0,0-4.889,0-.333,3.056,0,0,3.278,1.556,5.556,7.333,0,0,2.889,9.722,16.833,6.722l.056,8.5c0,1.167-.111,4.556-1.889,4.944H14.111A11.111,11.111,0,0,1,3,91.889V14.111A11.111,11.111,0,0,1,14.111,3Z" transform="translate(-0.5 -0.5)" fill="#fff" stroke="#000" stroke-width="5"/>
</svg>
