<svg xmlns="http://www.w3.org/2000/svg" width="105" height="105" viewBox="0 0 105 105">
  <path id="linkedin-box" d="M92,3a10.922,10.922,0,0,1,11,11V92a10.922,10.922,0,0,1-11,11H14A10.922,10.922,0,0,1,3,92V14A10.922,10.922,0,0,1,14,3H92M89,89V59.5a17.922,17.922,0,0,0-18-18c-4.722,0-10.333,3.167-13,7.5V42.5H42.5V89H58V61.5A7.762,7.762,0,0,1,66,54a7.312,7.312,0,0,1,7.5,7.5V89H89M24.5,34A9.5,9.5,0,1,0,15,24.5,9.62,9.62,0,0,0,24.5,34m8,55V42.5H17V89Z" transform="translate(-0.5 -0.5)" fill="#fff" stroke="#000" stroke-width="5"/>
</svg>
