<svg xmlns="http://www.w3.org/2000/svg" width="105" height="105" viewBox="0 0 105 105">
  <path id="twitter-box" d="M14,3H92a10.922,10.922,0,0,1,11,11V92a10.922,10.922,0,0,1-11,11H14A10.922,10.922,0,0,1,3,92V14A10.922,10.922,0,0,1,14,3M84.5,38c2.667-2.222,6.111-4.556,7.5-7.5a24.5,24.5,0,0,1-8,2,15.411,15.411,0,0,0,6-8A31.154,31.154,0,0,1,80.5,28C71.889,17.611,51.333,25.944,55,41.5,40.5,40.611,31.833,34.056,24.5,26c-4.167,6.778-.444,17.167,4.5,20a17.2,17.2,0,0,1-6.5-2c.222,8.556,4.889,12.778,11.5,15a19.632,19.632,0,0,1-6.5,0c2.056,5.944,6.667,9.722,14,10.5-5,4.222-14.556,7.167-22,6,6.389,4.056,13.889,7.444,24,7C68,81.389,84.111,63.667,84.5,38Z" transform="translate(-0.5 -0.5)" fill="#fff" stroke="#000" stroke-width="5"/>
</svg>
