<svg xmlns="http://www.w3.org/2000/svg" width="100" height="100" viewBox="0 0 100 100">
  <path id="backend" d="M91.889,3H14.111A11.144,11.144,0,0,0,3,14.111V91.889A11.144,11.144,0,0,0,14.111,103H91.889A11.144,11.144,0,0,0,103,91.889V14.111A11.144,11.144,0,0,0,91.889,3M47.444,30.778H36.333V41.889A11.144,11.144,0,0,1,25.222,53,11.144,11.144,0,0,1,36.333,64.111V75.222H47.444V86.333H36.333A11.144,11.144,0,0,1,25.222,75.222V69.667A11.144,11.144,0,0,0,14.111,58.556V47.444A11.144,11.144,0,0,0,25.222,36.333V30.778A11.144,11.144,0,0,1,36.333,19.667H47.444V30.778M91.889,58.556A11.144,11.144,0,0,0,80.778,69.667v5.556A11.144,11.144,0,0,1,69.667,86.333H58.556V75.222H69.667V64.111A11.144,11.144,0,0,1,80.778,53,11.144,11.144,0,0,1,69.667,41.889V30.778H58.556V19.667H69.667A11.144,11.144,0,0,1,80.778,30.778v5.556A11.144,11.144,0,0,0,91.889,47.444Z" transform="translate(-3 -3)" fill="#666"/>
</svg>
