<svg xmlns="http://www.w3.org/2000/svg" width="70" height="70" viewBox="0 0 70 70">
  <g id="Backward_Arrow" data-name="Backward Arrow" transform="translate(0 70) rotate(-90)">
    <g id="Path_17" data-name="Path 17" fill="#fafafa">
      <path d="M 60 69 L 10 69 C 5.037380218505859 69 1 64.96262359619141 1 60 L 1 10 C 1 5.037380218505859 5.037380218505859 1 10 1 L 60 1 C 64.96262359619141 1 69 5.037380218505859 69 10 L 69 60 C 69 64.96262359619141 64.96262359619141 69 60 69 Z" stroke="none"/>
      <path d="M 10 2 C 5.588790893554688 2 2 5.588790893554688 2 10 L 2 60 C 2 64.41120910644531 5.588790893554688 68 10 68 L 60 68 C 64.41120910644531 68 68 64.41120910644531 68 60 L 68 10 C 68 5.588790893554688 64.41120910644531 2 60 2 L 10 2 M 10 0 L 60 0 C 65.52284240722656 0 70 4.477142333984375 70 10 L 70 60 C 70 65.52284240722656 65.52284240722656 70 60 70 L 10 70 C 4.477142333984375 70 0 65.52284240722656 0 60 L 0 10 C 0 4.477142333984375 4.477142333984375 0 10 0 Z" stroke="none" fill="#f1f9ff"/>
    </g>
    <g id="Symbol_83" data-name="Symbol 83" transform="translate(1311 563) rotate(180)">
      <path id="Path_10" data-name="Path 10" d="M20,0,16.364,3.636,30.13,17.4H0V22.6H30.13L16.364,36.364,20,40,40,20Z" transform="translate(1254 507)" fill="#666"/>
    </g>
  </g>
</svg>
