<svg xmlns="http://www.w3.org/2000/svg" width="105" height="105" viewBox="0 0 105 105">
  <path id="email-box" d="M14.111,3A11.111,11.111,0,0,0,3,14.111V91.889A11.111,11.111,0,0,0,14.111,103H91.889A11.111,11.111,0,0,0,103,91.889V14.111A11.111,11.111,0,0,0,91.889,3H14.111m7.778,19.444H84.111a7.765,7.765,0,0,1,7.778,7.778V75.778a7.778,7.778,0,0,1-7.778,7.778H21.889a7.8,7.8,0,0,1-7.778-7.778V30.222a7.73,7.73,0,0,1,7.778-7.778m-2.222,8.333V41.889L53,64.111,86.333,41.889V30.778L53,53Z" transform="translate(-0.5 -0.5)" fill="none" stroke="#fff" stroke-width="5"/>
</svg>
