<svg xmlns="http://www.w3.org/2000/svg" width="200" height="204.709" viewBox="0 0 200 204.709">
  <g id="Group_166" data-name="Group 166" transform="translate(-4005.793 -9349.377)">
    <g id="Group_165" data-name="Group 165" transform="translate(4005.793 9349.377)">
      <path id="Path_16" data-name="Path 16" d="M0,0V100" transform="translate(100.099 52.557)" fill="#00a9de" stroke="#68e0cf" stroke-width="15"/>
      <g id="Path_15" data-name="Path 15" transform="matrix(1, -0.017, 0.017, 1, 0, 3.43)" fill="none">
        <path d="M98.258,0c54.267,0,98.258,45.065,98.258,100.655S152.525,201.31,98.258,201.31,0,156.245,0,100.655,43.992,0,98.258,0Z" stroke="none"/>
        <path d="M 98.25828552246094 14.99998474121094 C 52.3494873046875 14.99998474121094 15 53.42457580566406 15 100.6548233032227 C 15 147.8850708007812 52.3494873046875 186.3096618652344 98.25828552246094 186.3096618652344 C 144.1670837402344 186.3096618652344 181.5165710449219 147.8850708007812 181.5165710449219 100.6548233032227 C 181.5165710449219 53.42457580566406 144.1670837402344 14.99998474121094 98.25828552246094 14.99998474121094 M 98.25828552246094 -1.52587890625e-05 C 152.5248260498047 -1.52587890625e-05 196.5165710449219 45.064697265625 196.5165710449219 100.6548233032227 C 196.5165710449219 156.2449493408203 152.5248260498047 201.3096618652344 98.25828552246094 201.3096618652344 C 43.99174499511719 201.3096618652344 0 156.2449493408203 0 100.6548233032227 C 0 45.064697265625 43.99174499511719 -1.52587890625e-05 98.25828552246094 -1.52587890625e-05 Z" stroke="none" fill="#68e0cf"/>
      </g>
    </g>
  </g>
</svg>
